<svg width="1136" height="1254" viewBox="0 0 1136 1254" fill="none" xmlns="http://www.w3.org/2000/svg">
<path d="M289.787 22V133.256C289.787 190.694 336.35 237.256 393.787 237.256H852C909.438 237.256 956 283.818 956 341.256V414.993V488.73C956 546.167 909.438 592.73 852 592.73H108C50.5624 592.73 4 639.292 4 696.73V754.856V812.892C4 870.365 50.6176 916.942 108.091 916.892L1027.91 916.091C1085.38 916.041 1132 962.618 1132 1020.09V1082.51V1145.12C1132 1202.52 1085.5 1249.06 1028.1 1249.12L132 1250" stroke="#BBBBBB" stroke-width="8" stroke-linecap="round" stroke-dasharray="13 13"/>
<path d="M855.869 261.003C865.532 261.182 873.2 268.158 872.996 276.586C872.792 285.015 859.245 304.323 856.43 304.271C853.614 304.219 837.799 284.369 838.003 275.941C838.207 267.513 846.206 260.825 855.869 261.003ZM855.346 271.701C851.457 271.701 848.305 274.333 848.305 277.579C848.305 280.825 851.457 283.456 855.346 283.456C859.234 283.456 862.386 280.825 862.386 277.579C862.386 274.333 859.234 271.701 855.346 271.701Z" fill="white"/>
<path d="M245.603 0.00596109C259.448 0.261254 270.435 10.2574 270.143 22.3331C269.85 34.4085 250.441 62.072 246.406 61.9991C242.372 61.9247 219.71 33.4853 220.002 21.4093C220.295 9.33352 231.757 -0.249328 245.603 0.00596109ZM244.853 15.3331C239.281 15.3331 234.765 19.1041 234.765 23.755C234.765 28.4057 239.281 32.1759 244.853 32.1759C250.424 32.1758 254.94 28.4057 254.94 23.755C254.94 19.1041 250.424 15.3332 244.853 15.3331Z" fill="white"/>
<path d="M18.8682 564.003C28.5312 564.182 36.1994 571.159 35.9951 579.587C35.7904 588.016 22.2442 607.324 19.4287 607.272C16.613 607.22 0.797815 587.37 1.00196 578.942C1.20628 570.514 9.20506 563.825 18.8682 564.003ZM18.3447 574.702C14.4565 574.702 11.3039 577.333 11.3037 580.579C11.3037 583.825 14.4564 586.457 18.3447 586.457C22.233 586.457 25.3848 583.825 25.3848 580.579C25.3846 577.333 22.2328 574.702 18.3447 574.702Z" fill="white"/>
<path d="M1103.87 878.003C1113.53 878.182 1121.2 885.158 1121 893.586C1120.79 902.015 1107.24 921.323 1104.43 921.271C1101.61 921.219 1085.8 901.369 1086 892.941C1086.21 884.513 1094.21 877.825 1103.87 878.003ZM1103.34 888.701C1099.46 888.701 1096.3 891.332 1096.3 894.578C1096.3 897.824 1099.46 900.456 1103.34 900.456C1107.23 900.456 1110.38 897.824 1110.38 894.578C1110.38 891.332 1107.23 888.701 1103.34 888.701Z" fill="white"/>
</svg>
